<mxfile host="Electron" modified="2024-01-17T08:11:34.393Z" agent="Mozilla/5.0 (Windows NT 10.0; Win64; x64) AppleWebKit/537.36 (KHTML, like Gecko) draw.io/22.1.2 Chrome/114.0.5735.289 Electron/25.9.4 Safari/537.36" etag="CMzVIh0lLGpgRYfygPvd" version="22.1.2" type="device">
  <diagram name="第 1 页" id="f4ysflZwD8AMnO3xdN1d">
    <mxGraphModel dx="1028" dy="901" grid="1" gridSize="10" guides="1" tooltips="1" connect="1" arrows="1" fold="1" page="1" pageScale="1" pageWidth="491" pageHeight="413" math="0" shadow="0">
      <root>
        <mxCell id="0" />
        <mxCell id="1" parent="0" />
        <mxCell id="K98Bxn6t_sUbTKtrdi1Z-68" style="edgeStyle=orthogonalEdgeStyle;rounded=0;orthogonalLoop=1;jettySize=auto;html=1;exitX=0.5;exitY=1;exitDx=0;exitDy=0;" parent="1" edge="1">
          <mxGeometry relative="1" as="geometry">
            <mxPoint x="190.5" y="550" as="sourcePoint" />
            <mxPoint x="190.5" y="550" as="targetPoint" />
          </mxGeometry>
        </mxCell>
        <mxCell id="K98Bxn6t_sUbTKtrdi1Z-146" style="edgeStyle=orthogonalEdgeStyle;rounded=0;orthogonalLoop=1;jettySize=auto;html=1;exitX=0;exitY=0.25;exitDx=0;exitDy=0;entryX=1;entryY=0.5;entryDx=0;entryDy=0;" parent="1" source="K98Bxn6t_sUbTKtrdi1Z-148" edge="1">
          <mxGeometry relative="1" as="geometry">
            <mxPoint x="420" y="42" as="targetPoint" />
          </mxGeometry>
        </mxCell>
        <mxCell id="K98Bxn6t_sUbTKtrdi1Z-147" style="edgeStyle=orthogonalEdgeStyle;rounded=0;orthogonalLoop=1;jettySize=auto;html=1;exitX=1;exitY=0.75;exitDx=0;exitDy=0;entryX=0;entryY=0.75;entryDx=0;entryDy=0;" parent="1" source="K98Bxn6t_sUbTKtrdi1Z-148" target="K98Bxn6t_sUbTKtrdi1Z-151" edge="1">
          <mxGeometry relative="1" as="geometry" />
        </mxCell>
        <mxCell id="K98Bxn6t_sUbTKtrdi1Z-148" value="A" style="rounded=0;whiteSpace=wrap;html=1;fillColor=#d5e8d4;strokeColor=#82b366;fontSize=18;fontStyle=1" parent="1" vertex="1">
          <mxGeometry x="460" y="30" width="50" height="50" as="geometry" />
        </mxCell>
        <mxCell id="K98Bxn6t_sUbTKtrdi1Z-149" style="edgeStyle=orthogonalEdgeStyle;rounded=0;orthogonalLoop=1;jettySize=auto;html=1;exitX=0;exitY=0.25;exitDx=0;exitDy=0;entryX=1;entryY=0.25;entryDx=0;entryDy=0;" parent="1" source="K98Bxn6t_sUbTKtrdi1Z-151" target="K98Bxn6t_sUbTKtrdi1Z-148" edge="1">
          <mxGeometry relative="1" as="geometry" />
        </mxCell>
        <mxCell id="K98Bxn6t_sUbTKtrdi1Z-161" style="edgeStyle=orthogonalEdgeStyle;rounded=0;orthogonalLoop=1;jettySize=auto;html=1;exitX=1;exitY=0.75;exitDx=0;exitDy=0;entryX=0;entryY=0.75;entryDx=0;entryDy=0;" parent="1" source="K98Bxn6t_sUbTKtrdi1Z-151" target="K98Bxn6t_sUbTKtrdi1Z-158" edge="1">
          <mxGeometry relative="1" as="geometry" />
        </mxCell>
        <mxCell id="K98Bxn6t_sUbTKtrdi1Z-151" value="B" style="rounded=0;whiteSpace=wrap;html=1;fillColor=#d5e8d4;strokeColor=#82b366;fontStyle=1;fontSize=18;" parent="1" vertex="1">
          <mxGeometry x="550" y="30" width="50" height="50" as="geometry" />
        </mxCell>
        <mxCell id="K98Bxn6t_sUbTKtrdi1Z-152" style="edgeStyle=orthogonalEdgeStyle;rounded=0;orthogonalLoop=1;jettySize=auto;html=1;exitX=0.5;exitY=0;exitDx=0;exitDy=0;entryX=0.5;entryY=1;entryDx=0;entryDy=0;" parent="1" source="K98Bxn6t_sUbTKtrdi1Z-153" target="K98Bxn6t_sUbTKtrdi1Z-148" edge="1">
          <mxGeometry relative="1" as="geometry" />
        </mxCell>
        <mxCell id="K98Bxn6t_sUbTKtrdi1Z-153" value="&lt;b&gt;first&lt;/b&gt;" style="text;html=1;strokeColor=none;fillColor=none;align=center;verticalAlign=middle;whiteSpace=wrap;rounded=0;fontSize=21;" parent="1" vertex="1">
          <mxGeometry x="465" y="110" width="40" height="20" as="geometry" />
        </mxCell>
        <mxCell id="K98Bxn6t_sUbTKtrdi1Z-154" style="edgeStyle=orthogonalEdgeStyle;rounded=0;orthogonalLoop=1;jettySize=auto;html=1;exitX=0.5;exitY=0;exitDx=0;exitDy=0;entryX=0.5;entryY=1;entryDx=0;entryDy=0;" parent="1" source="K98Bxn6t_sUbTKtrdi1Z-155" target="K98Bxn6t_sUbTKtrdi1Z-151" edge="1">
          <mxGeometry relative="1" as="geometry" />
        </mxCell>
        <mxCell id="K98Bxn6t_sUbTKtrdi1Z-155" value="&lt;b&gt;last&lt;/b&gt;" style="text;html=1;strokeColor=none;fillColor=none;align=center;verticalAlign=middle;whiteSpace=wrap;rounded=0;fontSize=21;" parent="1" vertex="1">
          <mxGeometry x="555" y="110" width="40" height="20" as="geometry" />
        </mxCell>
        <mxCell id="K98Bxn6t_sUbTKtrdi1Z-156" value="null" style="rounded=0;whiteSpace=wrap;html=1;fillColor=#f5f5f5;strokeColor=#666666;fontSize=18;fontStyle=1;dashed=1;fontColor=#333333;" parent="1" vertex="1">
          <mxGeometry x="370" y="30" width="50" height="50" as="geometry" />
        </mxCell>
        <mxCell id="K98Bxn6t_sUbTKtrdi1Z-158" value="null" style="rounded=0;whiteSpace=wrap;html=1;fillColor=#f5f5f5;strokeColor=#666666;fontSize=18;fontStyle=1;dashed=1;fontColor=#333333;" parent="1" vertex="1">
          <mxGeometry x="640" y="30" width="50" height="50" as="geometry" />
        </mxCell>
        <mxCell id="K98Bxn6t_sUbTKtrdi1Z-264" value="创建新节点" style="text;html=1;strokeColor=none;fillColor=none;align=center;verticalAlign=middle;whiteSpace=wrap;rounded=0;fontStyle=1;fontSize=15;" parent="1" vertex="1">
          <mxGeometry x="-120" y="177" width="140" height="30" as="geometry" />
        </mxCell>
        <mxCell id="K98Bxn6t_sUbTKtrdi1Z-265" value="原节点的前驱节点指向新节点" style="text;html=1;strokeColor=none;fillColor=none;align=center;verticalAlign=middle;whiteSpace=wrap;rounded=0;fontStyle=1;fontSize=15;" parent="1" vertex="1">
          <mxGeometry x="-120" y="430" width="140" height="30" as="geometry" />
        </mxCell>
        <mxCell id="K98Bxn6t_sUbTKtrdi1Z-266" value="" style="endArrow=none;html=1;rounded=0;strokeWidth=2;" parent="1" edge="1">
          <mxGeometry width="50" height="50" relative="1" as="geometry">
            <mxPoint x="-90" y="150" as="sourcePoint" />
            <mxPoint x="990" y="150" as="targetPoint" />
          </mxGeometry>
        </mxCell>
        <mxCell id="K98Bxn6t_sUbTKtrdi1Z-267" value="" style="endArrow=none;html=1;rounded=0;strokeWidth=2;" parent="1" edge="1">
          <mxGeometry width="50" height="50" relative="1" as="geometry">
            <mxPoint x="-98" y="350" as="sourcePoint" />
            <mxPoint x="982" y="350" as="targetPoint" />
          </mxGeometry>
        </mxCell>
        <mxCell id="K98Bxn6t_sUbTKtrdi1Z-268" value="" style="endArrow=none;html=1;rounded=0;strokeWidth=2;" parent="1" edge="1">
          <mxGeometry width="50" height="50" relative="1" as="geometry">
            <mxPoint x="-98" y="540" as="sourcePoint" />
            <mxPoint x="982" y="540" as="targetPoint" />
          </mxGeometry>
        </mxCell>
        <mxCell id="K98Bxn6t_sUbTKtrdi1Z-274" value="" style="endArrow=none;dashed=1;html=1;rounded=0;" parent="1" edge="1">
          <mxGeometry width="50" height="50" relative="1" as="geometry">
            <mxPoint x="520" y="690" as="sourcePoint" />
            <mxPoint x="520" y="147.6" as="targetPoint" />
          </mxGeometry>
        </mxCell>
        <mxCell id="ZF45zahiYfuIk4gYK4d6-56" style="edgeStyle=orthogonalEdgeStyle;rounded=0;orthogonalLoop=1;jettySize=auto;html=1;exitX=0;exitY=0.25;exitDx=0;exitDy=0;entryX=1;entryY=0.5;entryDx=0;entryDy=0;" edge="1" parent="1" source="ZF45zahiYfuIk4gYK4d6-58">
          <mxGeometry relative="1" as="geometry">
            <mxPoint x="122.21000000000001" y="572" as="targetPoint" />
          </mxGeometry>
        </mxCell>
        <mxCell id="ZF45zahiYfuIk4gYK4d6-75" style="edgeStyle=orthogonalEdgeStyle;rounded=0;orthogonalLoop=1;jettySize=auto;html=1;exitX=1;exitY=0.75;exitDx=0;exitDy=0;entryX=0;entryY=0.75;entryDx=0;entryDy=0;" edge="1" parent="1" source="ZF45zahiYfuIk4gYK4d6-58" target="ZF45zahiYfuIk4gYK4d6-64">
          <mxGeometry relative="1" as="geometry" />
        </mxCell>
        <mxCell id="ZF45zahiYfuIk4gYK4d6-58" value="A" style="rounded=0;whiteSpace=wrap;html=1;fillColor=#d5e8d4;strokeColor=#82b366;fontSize=18;fontStyle=1" vertex="1" parent="1">
          <mxGeometry x="162.21" y="560" width="50" height="50" as="geometry" />
        </mxCell>
        <mxCell id="ZF45zahiYfuIk4gYK4d6-59" style="edgeStyle=orthogonalEdgeStyle;rounded=0;orthogonalLoop=1;jettySize=auto;html=1;exitX=1;exitY=0.75;exitDx=0;exitDy=0;entryX=0;entryY=0.75;entryDx=0;entryDy=0;" edge="1" parent="1" source="ZF45zahiYfuIk4gYK4d6-61" target="ZF45zahiYfuIk4gYK4d6-70">
          <mxGeometry relative="1" as="geometry" />
        </mxCell>
        <mxCell id="ZF45zahiYfuIk4gYK4d6-73" style="edgeStyle=orthogonalEdgeStyle;rounded=0;orthogonalLoop=1;jettySize=auto;html=1;exitX=0;exitY=0.25;exitDx=0;exitDy=0;entryX=1;entryY=0.25;entryDx=0;entryDy=0;" edge="1" parent="1" source="ZF45zahiYfuIk4gYK4d6-61" target="ZF45zahiYfuIk4gYK4d6-64">
          <mxGeometry relative="1" as="geometry" />
        </mxCell>
        <mxCell id="ZF45zahiYfuIk4gYK4d6-61" value="B" style="rounded=0;whiteSpace=wrap;html=1;fillColor=#fff2cc;strokeColor=#d6b656;fontStyle=1;fontSize=18;" vertex="1" parent="1">
          <mxGeometry x="348.78" y="560" width="50" height="50" as="geometry" />
        </mxCell>
        <mxCell id="ZF45zahiYfuIk4gYK4d6-72" style="edgeStyle=orthogonalEdgeStyle;rounded=0;orthogonalLoop=1;jettySize=auto;html=1;exitX=1;exitY=0.75;exitDx=0;exitDy=0;entryX=0;entryY=0.75;entryDx=0;entryDy=0;" edge="1" parent="1" source="ZF45zahiYfuIk4gYK4d6-64" target="ZF45zahiYfuIk4gYK4d6-61">
          <mxGeometry relative="1" as="geometry" />
        </mxCell>
        <mxCell id="ZF45zahiYfuIk4gYK4d6-74" style="edgeStyle=orthogonalEdgeStyle;rounded=0;orthogonalLoop=1;jettySize=auto;html=1;exitX=0;exitY=0.25;exitDx=0;exitDy=0;entryX=1;entryY=0.25;entryDx=0;entryDy=0;" edge="1" parent="1" source="ZF45zahiYfuIk4gYK4d6-64" target="ZF45zahiYfuIk4gYK4d6-58">
          <mxGeometry relative="1" as="geometry" />
        </mxCell>
        <mxCell id="ZF45zahiYfuIk4gYK4d6-64" value="C" style="rounded=0;whiteSpace=wrap;html=1;fillColor=#f8cecc;strokeColor=#b85450;fontStyle=1;fontSize=18;" vertex="1" parent="1">
          <mxGeometry x="253.66" y="560" width="50" height="50" as="geometry" />
        </mxCell>
        <mxCell id="ZF45zahiYfuIk4gYK4d6-65" style="edgeStyle=orthogonalEdgeStyle;rounded=0;orthogonalLoop=1;jettySize=auto;html=1;exitX=0.5;exitY=0;exitDx=0;exitDy=0;entryX=0.5;entryY=1;entryDx=0;entryDy=0;" edge="1" parent="1" source="ZF45zahiYfuIk4gYK4d6-66" target="ZF45zahiYfuIk4gYK4d6-58">
          <mxGeometry relative="1" as="geometry" />
        </mxCell>
        <mxCell id="ZF45zahiYfuIk4gYK4d6-66" value="&lt;b&gt;first&lt;/b&gt;" style="text;html=1;strokeColor=none;fillColor=none;align=center;verticalAlign=middle;whiteSpace=wrap;rounded=0;fontSize=21;" vertex="1" parent="1">
          <mxGeometry x="167.21" y="640" width="40" height="20" as="geometry" />
        </mxCell>
        <mxCell id="ZF45zahiYfuIk4gYK4d6-67" style="edgeStyle=orthogonalEdgeStyle;rounded=0;orthogonalLoop=1;jettySize=auto;html=1;exitX=0.5;exitY=0;exitDx=0;exitDy=0;entryX=0.5;entryY=1;entryDx=0;entryDy=0;" edge="1" parent="1" source="ZF45zahiYfuIk4gYK4d6-68" target="ZF45zahiYfuIk4gYK4d6-61">
          <mxGeometry relative="1" as="geometry" />
        </mxCell>
        <mxCell id="ZF45zahiYfuIk4gYK4d6-68" value="&lt;b&gt;last&lt;/b&gt;" style="text;html=1;strokeColor=none;fillColor=none;align=center;verticalAlign=middle;whiteSpace=wrap;rounded=0;fontSize=21;" vertex="1" parent="1">
          <mxGeometry x="353.78" y="640" width="40" height="20" as="geometry" />
        </mxCell>
        <mxCell id="ZF45zahiYfuIk4gYK4d6-69" value="null" style="rounded=0;whiteSpace=wrap;html=1;fillColor=#f5f5f5;strokeColor=#666666;fontSize=18;fontStyle=1;dashed=1;fontColor=#333333;" vertex="1" parent="1">
          <mxGeometry x="72.21000000000001" y="560" width="50" height="50" as="geometry" />
        </mxCell>
        <mxCell id="ZF45zahiYfuIk4gYK4d6-70" value="null" style="rounded=0;whiteSpace=wrap;html=1;fillColor=#f5f5f5;strokeColor=#666666;fontSize=18;fontStyle=1;dashed=1;fontColor=#333333;" vertex="1" parent="1">
          <mxGeometry x="438.78" y="560" width="50" height="50" as="geometry" />
        </mxCell>
        <mxCell id="ZF45zahiYfuIk4gYK4d6-76" style="edgeStyle=orthogonalEdgeStyle;rounded=0;orthogonalLoop=1;jettySize=auto;html=1;exitX=0;exitY=0.25;exitDx=0;exitDy=0;entryX=1;entryY=0.5;entryDx=0;entryDy=0;" edge="1" parent="1" source="ZF45zahiYfuIk4gYK4d6-78">
          <mxGeometry relative="1" as="geometry">
            <mxPoint x="122.22" y="382" as="targetPoint" />
          </mxGeometry>
        </mxCell>
        <mxCell id="ZF45zahiYfuIk4gYK4d6-220" style="edgeStyle=orthogonalEdgeStyle;rounded=0;orthogonalLoop=1;jettySize=auto;html=1;exitX=1;exitY=0.75;exitDx=0;exitDy=0;entryX=0;entryY=0.75;entryDx=0;entryDy=0;" edge="1" parent="1" source="ZF45zahiYfuIk4gYK4d6-78" target="ZF45zahiYfuIk4gYK4d6-81">
          <mxGeometry relative="1" as="geometry" />
        </mxCell>
        <mxCell id="ZF45zahiYfuIk4gYK4d6-78" value="A" style="rounded=0;whiteSpace=wrap;html=1;fillColor=#d5e8d4;strokeColor=#82b366;fontSize=18;fontStyle=1" vertex="1" parent="1">
          <mxGeometry x="162.22" y="370" width="50" height="50" as="geometry" />
        </mxCell>
        <mxCell id="ZF45zahiYfuIk4gYK4d6-79" style="edgeStyle=orthogonalEdgeStyle;rounded=0;orthogonalLoop=1;jettySize=auto;html=1;exitX=1;exitY=0.75;exitDx=0;exitDy=0;entryX=0;entryY=0.75;entryDx=0;entryDy=0;" edge="1" parent="1" source="ZF45zahiYfuIk4gYK4d6-81" target="ZF45zahiYfuIk4gYK4d6-90">
          <mxGeometry relative="1" as="geometry" />
        </mxCell>
        <mxCell id="ZF45zahiYfuIk4gYK4d6-80" style="edgeStyle=orthogonalEdgeStyle;rounded=0;orthogonalLoop=1;jettySize=auto;html=1;exitX=0;exitY=0.25;exitDx=0;exitDy=0;entryX=1;entryY=0.25;entryDx=0;entryDy=0;curved=1;" edge="1" parent="1" source="ZF45zahiYfuIk4gYK4d6-81" target="ZF45zahiYfuIk4gYK4d6-84">
          <mxGeometry relative="1" as="geometry">
            <Array as="points">
              <mxPoint x="322" y="383" />
              <mxPoint x="322" y="483" />
            </Array>
          </mxGeometry>
        </mxCell>
        <mxCell id="ZF45zahiYfuIk4gYK4d6-81" value="B" style="rounded=0;whiteSpace=wrap;html=1;fillColor=#fff2cc;strokeColor=#d6b656;fontStyle=1;fontSize=18;" vertex="1" parent="1">
          <mxGeometry x="348.78999999999996" y="370" width="50" height="50" as="geometry" />
        </mxCell>
        <mxCell id="ZF45zahiYfuIk4gYK4d6-82" style="edgeStyle=orthogonalEdgeStyle;rounded=0;orthogonalLoop=1;jettySize=auto;html=1;exitX=1;exitY=0.75;exitDx=0;exitDy=0;entryX=0;entryY=0.75;entryDx=0;entryDy=0;curved=1;" edge="1" parent="1" source="ZF45zahiYfuIk4gYK4d6-84" target="ZF45zahiYfuIk4gYK4d6-81">
          <mxGeometry relative="1" as="geometry" />
        </mxCell>
        <mxCell id="ZF45zahiYfuIk4gYK4d6-83" style="edgeStyle=orthogonalEdgeStyle;rounded=0;orthogonalLoop=1;jettySize=auto;html=1;exitX=0;exitY=0.25;exitDx=0;exitDy=0;entryX=1;entryY=0.25;entryDx=0;entryDy=0;curved=1;" edge="1" parent="1" source="ZF45zahiYfuIk4gYK4d6-84" target="ZF45zahiYfuIk4gYK4d6-78">
          <mxGeometry relative="1" as="geometry">
            <Array as="points">
              <mxPoint x="242" y="483" />
              <mxPoint x="242" y="383" />
            </Array>
          </mxGeometry>
        </mxCell>
        <mxCell id="ZF45zahiYfuIk4gYK4d6-84" value="C" style="rounded=0;whiteSpace=wrap;html=1;fillColor=#f8cecc;strokeColor=#b85450;fontStyle=1;fontSize=18;" vertex="1" parent="1">
          <mxGeometry x="255.49999999999994" y="470" width="50" height="50" as="geometry" />
        </mxCell>
        <mxCell id="ZF45zahiYfuIk4gYK4d6-85" style="edgeStyle=orthogonalEdgeStyle;rounded=0;orthogonalLoop=1;jettySize=auto;html=1;exitX=0.5;exitY=0;exitDx=0;exitDy=0;entryX=0.5;entryY=1;entryDx=0;entryDy=0;" edge="1" parent="1" source="ZF45zahiYfuIk4gYK4d6-86" target="ZF45zahiYfuIk4gYK4d6-78">
          <mxGeometry relative="1" as="geometry" />
        </mxCell>
        <mxCell id="ZF45zahiYfuIk4gYK4d6-86" value="&lt;b&gt;first&lt;/b&gt;" style="text;html=1;strokeColor=none;fillColor=none;align=center;verticalAlign=middle;whiteSpace=wrap;rounded=0;fontSize=21;" vertex="1" parent="1">
          <mxGeometry x="167.22" y="450" width="40" height="20" as="geometry" />
        </mxCell>
        <mxCell id="ZF45zahiYfuIk4gYK4d6-87" style="edgeStyle=orthogonalEdgeStyle;rounded=0;orthogonalLoop=1;jettySize=auto;html=1;exitX=0.5;exitY=0;exitDx=0;exitDy=0;entryX=0.5;entryY=1;entryDx=0;entryDy=0;" edge="1" parent="1" source="ZF45zahiYfuIk4gYK4d6-88" target="ZF45zahiYfuIk4gYK4d6-81">
          <mxGeometry relative="1" as="geometry" />
        </mxCell>
        <mxCell id="ZF45zahiYfuIk4gYK4d6-88" value="&lt;b&gt;last&lt;/b&gt;" style="text;html=1;strokeColor=none;fillColor=none;align=center;verticalAlign=middle;whiteSpace=wrap;rounded=0;fontSize=21;" vertex="1" parent="1">
          <mxGeometry x="353.78999999999996" y="450" width="40" height="20" as="geometry" />
        </mxCell>
        <mxCell id="ZF45zahiYfuIk4gYK4d6-89" value="null" style="rounded=0;whiteSpace=wrap;html=1;fillColor=#f5f5f5;strokeColor=#666666;fontSize=18;fontStyle=1;dashed=1;fontColor=#333333;" vertex="1" parent="1">
          <mxGeometry x="72.22" y="370" width="50" height="50" as="geometry" />
        </mxCell>
        <mxCell id="ZF45zahiYfuIk4gYK4d6-90" value="null" style="rounded=0;whiteSpace=wrap;html=1;fillColor=#f5f5f5;strokeColor=#666666;fontSize=18;fontStyle=1;dashed=1;fontColor=#333333;" vertex="1" parent="1">
          <mxGeometry x="438.78999999999996" y="370" width="50" height="50" as="geometry" />
        </mxCell>
        <mxCell id="ZF45zahiYfuIk4gYK4d6-123" style="edgeStyle=orthogonalEdgeStyle;rounded=0;orthogonalLoop=1;jettySize=auto;html=1;exitX=0;exitY=0.25;exitDx=0;exitDy=0;entryX=1;entryY=0.5;entryDx=0;entryDy=0;" edge="1" parent="1" source="ZF45zahiYfuIk4gYK4d6-125">
          <mxGeometry relative="1" as="geometry">
            <mxPoint x="130.22" y="197" as="targetPoint" />
          </mxGeometry>
        </mxCell>
        <mxCell id="ZF45zahiYfuIk4gYK4d6-139" style="edgeStyle=orthogonalEdgeStyle;rounded=0;orthogonalLoop=1;jettySize=auto;html=1;exitX=1;exitY=0.75;exitDx=0;exitDy=0;entryX=0;entryY=0.75;entryDx=0;entryDy=0;" edge="1" parent="1" source="ZF45zahiYfuIk4gYK4d6-125" target="ZF45zahiYfuIk4gYK4d6-128">
          <mxGeometry relative="1" as="geometry" />
        </mxCell>
        <mxCell id="ZF45zahiYfuIk4gYK4d6-125" value="A" style="rounded=0;whiteSpace=wrap;html=1;fillColor=#d5e8d4;strokeColor=#82b366;fontSize=18;fontStyle=1" vertex="1" parent="1">
          <mxGeometry x="170.22" y="185" width="50" height="50" as="geometry" />
        </mxCell>
        <mxCell id="ZF45zahiYfuIk4gYK4d6-126" style="edgeStyle=orthogonalEdgeStyle;rounded=0;orthogonalLoop=1;jettySize=auto;html=1;exitX=1;exitY=0.75;exitDx=0;exitDy=0;entryX=0;entryY=0.75;entryDx=0;entryDy=0;" edge="1" parent="1" source="ZF45zahiYfuIk4gYK4d6-128" target="ZF45zahiYfuIk4gYK4d6-137">
          <mxGeometry relative="1" as="geometry" />
        </mxCell>
        <mxCell id="ZF45zahiYfuIk4gYK4d6-138" style="edgeStyle=orthogonalEdgeStyle;rounded=0;orthogonalLoop=1;jettySize=auto;html=1;exitX=0;exitY=0.25;exitDx=0;exitDy=0;entryX=1;entryY=0.25;entryDx=0;entryDy=0;" edge="1" parent="1" source="ZF45zahiYfuIk4gYK4d6-128" target="ZF45zahiYfuIk4gYK4d6-125">
          <mxGeometry relative="1" as="geometry" />
        </mxCell>
        <mxCell id="ZF45zahiYfuIk4gYK4d6-128" value="B" style="rounded=0;whiteSpace=wrap;html=1;fillColor=#fff2cc;strokeColor=#d6b656;fontStyle=1;fontSize=18;" vertex="1" parent="1">
          <mxGeometry x="356.78999999999996" y="185" width="50" height="50" as="geometry" />
        </mxCell>
        <mxCell id="ZF45zahiYfuIk4gYK4d6-129" style="edgeStyle=orthogonalEdgeStyle;rounded=0;orthogonalLoop=1;jettySize=auto;html=1;exitX=1;exitY=0.75;exitDx=0;exitDy=0;entryX=0;entryY=0.75;entryDx=0;entryDy=0;curved=1;" edge="1" parent="1" source="ZF45zahiYfuIk4gYK4d6-131" target="ZF45zahiYfuIk4gYK4d6-128">
          <mxGeometry relative="1" as="geometry" />
        </mxCell>
        <mxCell id="ZF45zahiYfuIk4gYK4d6-130" style="edgeStyle=orthogonalEdgeStyle;rounded=0;orthogonalLoop=1;jettySize=auto;html=1;exitX=0;exitY=0.25;exitDx=0;exitDy=0;entryX=1;entryY=0.25;entryDx=0;entryDy=0;curved=1;" edge="1" parent="1" source="ZF45zahiYfuIk4gYK4d6-131" target="ZF45zahiYfuIk4gYK4d6-125">
          <mxGeometry relative="1" as="geometry">
            <Array as="points">
              <mxPoint x="249.99999999999997" y="298" />
              <mxPoint x="249.99999999999997" y="198" />
            </Array>
          </mxGeometry>
        </mxCell>
        <mxCell id="ZF45zahiYfuIk4gYK4d6-131" value="C" style="rounded=0;whiteSpace=wrap;html=1;fillColor=#f8cecc;strokeColor=#b85450;fontStyle=1;fontSize=18;" vertex="1" parent="1">
          <mxGeometry x="263.5" y="285" width="50" height="50" as="geometry" />
        </mxCell>
        <mxCell id="ZF45zahiYfuIk4gYK4d6-132" style="edgeStyle=orthogonalEdgeStyle;rounded=0;orthogonalLoop=1;jettySize=auto;html=1;exitX=0.5;exitY=0;exitDx=0;exitDy=0;entryX=0.5;entryY=1;entryDx=0;entryDy=0;" edge="1" parent="1" source="ZF45zahiYfuIk4gYK4d6-133" target="ZF45zahiYfuIk4gYK4d6-125">
          <mxGeometry relative="1" as="geometry" />
        </mxCell>
        <mxCell id="ZF45zahiYfuIk4gYK4d6-133" value="&lt;b&gt;first&lt;/b&gt;" style="text;html=1;strokeColor=none;fillColor=none;align=center;verticalAlign=middle;whiteSpace=wrap;rounded=0;fontSize=21;" vertex="1" parent="1">
          <mxGeometry x="175.22" y="265" width="40" height="20" as="geometry" />
        </mxCell>
        <mxCell id="ZF45zahiYfuIk4gYK4d6-134" style="edgeStyle=orthogonalEdgeStyle;rounded=0;orthogonalLoop=1;jettySize=auto;html=1;exitX=0.5;exitY=0;exitDx=0;exitDy=0;entryX=0.5;entryY=1;entryDx=0;entryDy=0;" edge="1" parent="1" source="ZF45zahiYfuIk4gYK4d6-135" target="ZF45zahiYfuIk4gYK4d6-128">
          <mxGeometry relative="1" as="geometry" />
        </mxCell>
        <mxCell id="ZF45zahiYfuIk4gYK4d6-135" value="&lt;b&gt;last&lt;/b&gt;" style="text;html=1;strokeColor=none;fillColor=none;align=center;verticalAlign=middle;whiteSpace=wrap;rounded=0;fontSize=21;" vertex="1" parent="1">
          <mxGeometry x="361.78999999999996" y="265" width="40" height="20" as="geometry" />
        </mxCell>
        <mxCell id="ZF45zahiYfuIk4gYK4d6-136" value="null" style="rounded=0;whiteSpace=wrap;html=1;fillColor=#f5f5f5;strokeColor=#666666;fontSize=18;fontStyle=1;dashed=1;fontColor=#333333;" vertex="1" parent="1">
          <mxGeometry x="80.22" y="185" width="50" height="50" as="geometry" />
        </mxCell>
        <mxCell id="ZF45zahiYfuIk4gYK4d6-137" value="null" style="rounded=0;whiteSpace=wrap;html=1;fillColor=#f5f5f5;strokeColor=#666666;fontSize=18;fontStyle=1;dashed=1;fontColor=#333333;" vertex="1" parent="1">
          <mxGeometry x="446.78999999999996" y="185" width="50" height="50" as="geometry" />
        </mxCell>
        <mxCell id="ZF45zahiYfuIk4gYK4d6-169" style="edgeStyle=orthogonalEdgeStyle;rounded=0;orthogonalLoop=1;jettySize=auto;html=1;exitX=0;exitY=0.25;exitDx=0;exitDy=0;entryX=1;entryY=0.25;entryDx=0;entryDy=0;" edge="1" parent="1" source="ZF45zahiYfuIk4gYK4d6-171" target="ZF45zahiYfuIk4gYK4d6-179">
          <mxGeometry relative="1" as="geometry">
            <mxPoint x="690" y="202" as="targetPoint" />
          </mxGeometry>
        </mxCell>
        <mxCell id="ZF45zahiYfuIk4gYK4d6-170" style="edgeStyle=orthogonalEdgeStyle;rounded=0;orthogonalLoop=1;jettySize=auto;html=1;exitX=1;exitY=0.75;exitDx=0;exitDy=0;entryX=0;entryY=0.75;entryDx=0;entryDy=0;" edge="1" parent="1" source="ZF45zahiYfuIk4gYK4d6-171" target="ZF45zahiYfuIk4gYK4d6-174">
          <mxGeometry relative="1" as="geometry" />
        </mxCell>
        <mxCell id="ZF45zahiYfuIk4gYK4d6-171" value="A" style="rounded=0;whiteSpace=wrap;html=1;fillColor=#fff2cc;strokeColor=#d6b656;fontSize=18;fontStyle=1" vertex="1" parent="1">
          <mxGeometry x="730" y="190" width="50" height="50" as="geometry" />
        </mxCell>
        <mxCell id="ZF45zahiYfuIk4gYK4d6-172" style="edgeStyle=orthogonalEdgeStyle;rounded=0;orthogonalLoop=1;jettySize=auto;html=1;exitX=0;exitY=0.25;exitDx=0;exitDy=0;entryX=1;entryY=0.25;entryDx=0;entryDy=0;" edge="1" parent="1" source="ZF45zahiYfuIk4gYK4d6-174" target="ZF45zahiYfuIk4gYK4d6-171">
          <mxGeometry relative="1" as="geometry" />
        </mxCell>
        <mxCell id="ZF45zahiYfuIk4gYK4d6-173" style="edgeStyle=orthogonalEdgeStyle;rounded=0;orthogonalLoop=1;jettySize=auto;html=1;exitX=1;exitY=0.75;exitDx=0;exitDy=0;entryX=0;entryY=0.75;entryDx=0;entryDy=0;" edge="1" parent="1" source="ZF45zahiYfuIk4gYK4d6-174" target="ZF45zahiYfuIk4gYK4d6-180">
          <mxGeometry relative="1" as="geometry" />
        </mxCell>
        <mxCell id="ZF45zahiYfuIk4gYK4d6-174" value="B" style="rounded=0;whiteSpace=wrap;html=1;fillColor=#d5e8d4;strokeColor=#82b366;fontStyle=1;fontSize=18;" vertex="1" parent="1">
          <mxGeometry x="820" y="190" width="50" height="50" as="geometry" />
        </mxCell>
        <mxCell id="ZF45zahiYfuIk4gYK4d6-175" style="edgeStyle=orthogonalEdgeStyle;rounded=0;orthogonalLoop=1;jettySize=auto;html=1;exitX=0.5;exitY=0;exitDx=0;exitDy=0;entryX=0.5;entryY=1;entryDx=0;entryDy=0;" edge="1" parent="1" source="ZF45zahiYfuIk4gYK4d6-176" target="ZF45zahiYfuIk4gYK4d6-171">
          <mxGeometry relative="1" as="geometry" />
        </mxCell>
        <mxCell id="ZF45zahiYfuIk4gYK4d6-176" value="&lt;b&gt;first&lt;/b&gt;" style="text;html=1;strokeColor=none;fillColor=none;align=center;verticalAlign=middle;whiteSpace=wrap;rounded=0;fontSize=21;" vertex="1" parent="1">
          <mxGeometry x="735" y="270" width="40" height="20" as="geometry" />
        </mxCell>
        <mxCell id="ZF45zahiYfuIk4gYK4d6-177" style="edgeStyle=orthogonalEdgeStyle;rounded=0;orthogonalLoop=1;jettySize=auto;html=1;exitX=0.5;exitY=0;exitDx=0;exitDy=0;entryX=0.5;entryY=1;entryDx=0;entryDy=0;" edge="1" parent="1" source="ZF45zahiYfuIk4gYK4d6-178" target="ZF45zahiYfuIk4gYK4d6-174">
          <mxGeometry relative="1" as="geometry" />
        </mxCell>
        <mxCell id="ZF45zahiYfuIk4gYK4d6-178" value="&lt;b&gt;last&lt;/b&gt;" style="text;html=1;strokeColor=none;fillColor=none;align=center;verticalAlign=middle;whiteSpace=wrap;rounded=0;fontSize=21;" vertex="1" parent="1">
          <mxGeometry x="825" y="270" width="40" height="20" as="geometry" />
        </mxCell>
        <mxCell id="ZF45zahiYfuIk4gYK4d6-179" value="null" style="rounded=0;whiteSpace=wrap;html=1;fillColor=#f5f5f5;strokeColor=#666666;fontSize=18;fontStyle=1;dashed=1;fontColor=#333333;" vertex="1" parent="1">
          <mxGeometry x="545" y="190" width="50" height="50" as="geometry" />
        </mxCell>
        <mxCell id="ZF45zahiYfuIk4gYK4d6-180" value="null" style="rounded=0;whiteSpace=wrap;html=1;fillColor=#f5f5f5;strokeColor=#666666;fontSize=18;fontStyle=1;dashed=1;fontColor=#333333;" vertex="1" parent="1">
          <mxGeometry x="910" y="190" width="50" height="50" as="geometry" />
        </mxCell>
        <mxCell id="ZF45zahiYfuIk4gYK4d6-182" style="edgeStyle=orthogonalEdgeStyle;rounded=0;orthogonalLoop=1;jettySize=auto;html=1;exitX=1;exitY=0.75;exitDx=0;exitDy=0;entryX=0;entryY=0.75;entryDx=0;entryDy=0;curved=1;" edge="1" parent="1" source="ZF45zahiYfuIk4gYK4d6-181" target="ZF45zahiYfuIk4gYK4d6-171">
          <mxGeometry relative="1" as="geometry" />
        </mxCell>
        <mxCell id="ZF45zahiYfuIk4gYK4d6-183" style="edgeStyle=orthogonalEdgeStyle;rounded=0;orthogonalLoop=1;jettySize=auto;html=1;exitX=0;exitY=0.25;exitDx=0;exitDy=0;entryX=1;entryY=0.25;entryDx=0;entryDy=0;curved=1;" edge="1" parent="1" source="ZF45zahiYfuIk4gYK4d6-181" target="ZF45zahiYfuIk4gYK4d6-179">
          <mxGeometry relative="1" as="geometry" />
        </mxCell>
        <mxCell id="ZF45zahiYfuIk4gYK4d6-181" value="C" style="rounded=0;whiteSpace=wrap;html=1;fillColor=#f8cecc;strokeColor=#b85450;fontStyle=1;fontSize=18;" vertex="1" parent="1">
          <mxGeometry x="640" y="285" width="50" height="50" as="geometry" />
        </mxCell>
        <mxCell id="ZF45zahiYfuIk4gYK4d6-185" style="edgeStyle=orthogonalEdgeStyle;rounded=0;orthogonalLoop=1;jettySize=auto;html=1;exitX=1;exitY=0.75;exitDx=0;exitDy=0;entryX=0;entryY=0.75;entryDx=0;entryDy=0;" edge="1" parent="1" source="ZF45zahiYfuIk4gYK4d6-186" target="ZF45zahiYfuIk4gYK4d6-189">
          <mxGeometry relative="1" as="geometry" />
        </mxCell>
        <mxCell id="ZF45zahiYfuIk4gYK4d6-199" style="edgeStyle=orthogonalEdgeStyle;rounded=0;orthogonalLoop=1;jettySize=auto;html=1;exitX=0;exitY=0.25;exitDx=0;exitDy=0;entryX=1;entryY=0.25;entryDx=0;entryDy=0;curved=1;" edge="1" parent="1" source="ZF45zahiYfuIk4gYK4d6-186" target="ZF45zahiYfuIk4gYK4d6-198">
          <mxGeometry relative="1" as="geometry">
            <Array as="points">
              <mxPoint x="700" y="383" />
              <mxPoint x="700" y="478" />
            </Array>
          </mxGeometry>
        </mxCell>
        <mxCell id="ZF45zahiYfuIk4gYK4d6-186" value="A" style="rounded=0;whiteSpace=wrap;html=1;fillColor=#fff2cc;strokeColor=#d6b656;fontSize=18;fontStyle=1" vertex="1" parent="1">
          <mxGeometry x="730" y="370" width="50" height="50" as="geometry" />
        </mxCell>
        <mxCell id="ZF45zahiYfuIk4gYK4d6-187" style="edgeStyle=orthogonalEdgeStyle;rounded=0;orthogonalLoop=1;jettySize=auto;html=1;exitX=0;exitY=0.25;exitDx=0;exitDy=0;entryX=1;entryY=0.25;entryDx=0;entryDy=0;" edge="1" parent="1" source="ZF45zahiYfuIk4gYK4d6-189" target="ZF45zahiYfuIk4gYK4d6-186">
          <mxGeometry relative="1" as="geometry" />
        </mxCell>
        <mxCell id="ZF45zahiYfuIk4gYK4d6-188" style="edgeStyle=orthogonalEdgeStyle;rounded=0;orthogonalLoop=1;jettySize=auto;html=1;exitX=1;exitY=0.75;exitDx=0;exitDy=0;entryX=0;entryY=0.75;entryDx=0;entryDy=0;" edge="1" parent="1" source="ZF45zahiYfuIk4gYK4d6-189" target="ZF45zahiYfuIk4gYK4d6-195">
          <mxGeometry relative="1" as="geometry" />
        </mxCell>
        <mxCell id="ZF45zahiYfuIk4gYK4d6-189" value="B" style="rounded=0;whiteSpace=wrap;html=1;fillColor=#d5e8d4;strokeColor=#82b366;fontStyle=1;fontSize=18;" vertex="1" parent="1">
          <mxGeometry x="820" y="370" width="50" height="50" as="geometry" />
        </mxCell>
        <mxCell id="ZF45zahiYfuIk4gYK4d6-190" style="edgeStyle=orthogonalEdgeStyle;rounded=0;orthogonalLoop=1;jettySize=auto;html=1;exitX=0.5;exitY=0;exitDx=0;exitDy=0;entryX=0.5;entryY=1;entryDx=0;entryDy=0;" edge="1" parent="1" source="ZF45zahiYfuIk4gYK4d6-191" target="ZF45zahiYfuIk4gYK4d6-186">
          <mxGeometry relative="1" as="geometry" />
        </mxCell>
        <mxCell id="ZF45zahiYfuIk4gYK4d6-191" value="&lt;b&gt;first&lt;/b&gt;" style="text;html=1;strokeColor=none;fillColor=none;align=center;verticalAlign=middle;whiteSpace=wrap;rounded=0;fontSize=21;" vertex="1" parent="1">
          <mxGeometry x="735" y="450" width="40" height="20" as="geometry" />
        </mxCell>
        <mxCell id="ZF45zahiYfuIk4gYK4d6-192" style="edgeStyle=orthogonalEdgeStyle;rounded=0;orthogonalLoop=1;jettySize=auto;html=1;exitX=0.5;exitY=0;exitDx=0;exitDy=0;entryX=0.5;entryY=1;entryDx=0;entryDy=0;" edge="1" parent="1" source="ZF45zahiYfuIk4gYK4d6-193" target="ZF45zahiYfuIk4gYK4d6-189">
          <mxGeometry relative="1" as="geometry" />
        </mxCell>
        <mxCell id="ZF45zahiYfuIk4gYK4d6-193" value="&lt;b&gt;last&lt;/b&gt;" style="text;html=1;strokeColor=none;fillColor=none;align=center;verticalAlign=middle;whiteSpace=wrap;rounded=0;fontSize=21;" vertex="1" parent="1">
          <mxGeometry x="825" y="450" width="40" height="20" as="geometry" />
        </mxCell>
        <mxCell id="ZF45zahiYfuIk4gYK4d6-194" value="null" style="rounded=0;whiteSpace=wrap;html=1;fillColor=#f5f5f5;strokeColor=#666666;fontSize=18;fontStyle=1;dashed=1;fontColor=#333333;" vertex="1" parent="1">
          <mxGeometry x="545" y="370" width="50" height="50" as="geometry" />
        </mxCell>
        <mxCell id="ZF45zahiYfuIk4gYK4d6-195" value="null" style="rounded=0;whiteSpace=wrap;html=1;fillColor=#f5f5f5;strokeColor=#666666;fontSize=18;fontStyle=1;dashed=1;fontColor=#333333;" vertex="1" parent="1">
          <mxGeometry x="910" y="370" width="50" height="50" as="geometry" />
        </mxCell>
        <mxCell id="ZF45zahiYfuIk4gYK4d6-196" style="edgeStyle=orthogonalEdgeStyle;rounded=0;orthogonalLoop=1;jettySize=auto;html=1;exitX=1;exitY=0.75;exitDx=0;exitDy=0;entryX=0;entryY=0.75;entryDx=0;entryDy=0;curved=1;" edge="1" parent="1" source="ZF45zahiYfuIk4gYK4d6-198" target="ZF45zahiYfuIk4gYK4d6-186">
          <mxGeometry relative="1" as="geometry" />
        </mxCell>
        <mxCell id="ZF45zahiYfuIk4gYK4d6-197" style="edgeStyle=orthogonalEdgeStyle;rounded=0;orthogonalLoop=1;jettySize=auto;html=1;exitX=0;exitY=0.25;exitDx=0;exitDy=0;entryX=1;entryY=0.25;entryDx=0;entryDy=0;curved=1;" edge="1" parent="1" source="ZF45zahiYfuIk4gYK4d6-198" target="ZF45zahiYfuIk4gYK4d6-194">
          <mxGeometry relative="1" as="geometry" />
        </mxCell>
        <mxCell id="ZF45zahiYfuIk4gYK4d6-198" value="C" style="rounded=0;whiteSpace=wrap;html=1;fillColor=#f8cecc;strokeColor=#b85450;fontStyle=1;fontSize=18;" vertex="1" parent="1">
          <mxGeometry x="640" y="465" width="50" height="50" as="geometry" />
        </mxCell>
        <mxCell id="ZF45zahiYfuIk4gYK4d6-200" style="edgeStyle=orthogonalEdgeStyle;rounded=0;orthogonalLoop=1;jettySize=auto;html=1;exitX=1;exitY=0.75;exitDx=0;exitDy=0;entryX=0;entryY=0.75;entryDx=0;entryDy=0;" edge="1" parent="1" source="ZF45zahiYfuIk4gYK4d6-202" target="ZF45zahiYfuIk4gYK4d6-205">
          <mxGeometry relative="1" as="geometry" />
        </mxCell>
        <mxCell id="ZF45zahiYfuIk4gYK4d6-215" style="edgeStyle=orthogonalEdgeStyle;rounded=0;orthogonalLoop=1;jettySize=auto;html=1;exitX=0;exitY=0.25;exitDx=0;exitDy=0;entryX=1;entryY=0.25;entryDx=0;entryDy=0;" edge="1" parent="1" source="ZF45zahiYfuIk4gYK4d6-202" target="ZF45zahiYfuIk4gYK4d6-214">
          <mxGeometry relative="1" as="geometry" />
        </mxCell>
        <mxCell id="ZF45zahiYfuIk4gYK4d6-202" value="A" style="rounded=0;whiteSpace=wrap;html=1;fillColor=#fff2cc;strokeColor=#d6b656;fontSize=18;fontStyle=1" vertex="1" parent="1">
          <mxGeometry x="730" y="560" width="50" height="50" as="geometry" />
        </mxCell>
        <mxCell id="ZF45zahiYfuIk4gYK4d6-203" style="edgeStyle=orthogonalEdgeStyle;rounded=0;orthogonalLoop=1;jettySize=auto;html=1;exitX=0;exitY=0.25;exitDx=0;exitDy=0;entryX=1;entryY=0.25;entryDx=0;entryDy=0;" edge="1" parent="1" source="ZF45zahiYfuIk4gYK4d6-205" target="ZF45zahiYfuIk4gYK4d6-202">
          <mxGeometry relative="1" as="geometry" />
        </mxCell>
        <mxCell id="ZF45zahiYfuIk4gYK4d6-204" style="edgeStyle=orthogonalEdgeStyle;rounded=0;orthogonalLoop=1;jettySize=auto;html=1;exitX=1;exitY=0.75;exitDx=0;exitDy=0;entryX=0;entryY=0.75;entryDx=0;entryDy=0;" edge="1" parent="1" source="ZF45zahiYfuIk4gYK4d6-205" target="ZF45zahiYfuIk4gYK4d6-211">
          <mxGeometry relative="1" as="geometry" />
        </mxCell>
        <mxCell id="ZF45zahiYfuIk4gYK4d6-205" value="B" style="rounded=0;whiteSpace=wrap;html=1;fillColor=#d5e8d4;strokeColor=#82b366;fontStyle=1;fontSize=18;" vertex="1" parent="1">
          <mxGeometry x="820" y="560" width="50" height="50" as="geometry" />
        </mxCell>
        <mxCell id="ZF45zahiYfuIk4gYK4d6-216" style="edgeStyle=orthogonalEdgeStyle;rounded=0;orthogonalLoop=1;jettySize=auto;html=1;exitX=0.5;exitY=0;exitDx=0;exitDy=0;entryX=0.5;entryY=1;entryDx=0;entryDy=0;" edge="1" parent="1" source="ZF45zahiYfuIk4gYK4d6-207" target="ZF45zahiYfuIk4gYK4d6-214">
          <mxGeometry relative="1" as="geometry" />
        </mxCell>
        <mxCell id="ZF45zahiYfuIk4gYK4d6-207" value="&lt;b&gt;first&lt;/b&gt;" style="text;html=1;strokeColor=none;fillColor=none;align=center;verticalAlign=middle;whiteSpace=wrap;rounded=0;fontSize=21;" vertex="1" parent="1">
          <mxGeometry x="642" y="640" width="40" height="20" as="geometry" />
        </mxCell>
        <mxCell id="ZF45zahiYfuIk4gYK4d6-208" style="edgeStyle=orthogonalEdgeStyle;rounded=0;orthogonalLoop=1;jettySize=auto;html=1;exitX=0.5;exitY=0;exitDx=0;exitDy=0;entryX=0.5;entryY=1;entryDx=0;entryDy=0;" edge="1" parent="1" source="ZF45zahiYfuIk4gYK4d6-209" target="ZF45zahiYfuIk4gYK4d6-205">
          <mxGeometry relative="1" as="geometry" />
        </mxCell>
        <mxCell id="ZF45zahiYfuIk4gYK4d6-209" value="&lt;b&gt;last&lt;/b&gt;" style="text;html=1;strokeColor=none;fillColor=none;align=center;verticalAlign=middle;whiteSpace=wrap;rounded=0;fontSize=21;" vertex="1" parent="1">
          <mxGeometry x="825" y="640" width="40" height="20" as="geometry" />
        </mxCell>
        <mxCell id="ZF45zahiYfuIk4gYK4d6-210" value="null" style="rounded=0;whiteSpace=wrap;html=1;fillColor=#f5f5f5;strokeColor=#666666;fontSize=18;fontStyle=1;dashed=1;fontColor=#333333;" vertex="1" parent="1">
          <mxGeometry x="545" y="560" width="50" height="50" as="geometry" />
        </mxCell>
        <mxCell id="ZF45zahiYfuIk4gYK4d6-211" value="null" style="rounded=0;whiteSpace=wrap;html=1;fillColor=#f5f5f5;strokeColor=#666666;fontSize=18;fontStyle=1;dashed=1;fontColor=#333333;" vertex="1" parent="1">
          <mxGeometry x="910" y="560" width="50" height="50" as="geometry" />
        </mxCell>
        <mxCell id="ZF45zahiYfuIk4gYK4d6-212" style="edgeStyle=orthogonalEdgeStyle;rounded=0;orthogonalLoop=1;jettySize=auto;html=1;exitX=1;exitY=0.75;exitDx=0;exitDy=0;entryX=0;entryY=0.75;entryDx=0;entryDy=0;curved=1;" edge="1" parent="1" source="ZF45zahiYfuIk4gYK4d6-214" target="ZF45zahiYfuIk4gYK4d6-202">
          <mxGeometry relative="1" as="geometry" />
        </mxCell>
        <mxCell id="ZF45zahiYfuIk4gYK4d6-213" style="edgeStyle=orthogonalEdgeStyle;rounded=0;orthogonalLoop=1;jettySize=auto;html=1;exitX=0;exitY=0.25;exitDx=0;exitDy=0;entryX=1;entryY=0.25;entryDx=0;entryDy=0;curved=1;" edge="1" parent="1" source="ZF45zahiYfuIk4gYK4d6-214" target="ZF45zahiYfuIk4gYK4d6-210">
          <mxGeometry relative="1" as="geometry" />
        </mxCell>
        <mxCell id="ZF45zahiYfuIk4gYK4d6-214" value="C" style="rounded=0;whiteSpace=wrap;html=1;fillColor=#f8cecc;strokeColor=#b85450;fontStyle=1;fontSize=18;" vertex="1" parent="1">
          <mxGeometry x="637" y="560" width="50" height="50" as="geometry" />
        </mxCell>
        <mxCell id="ZF45zahiYfuIk4gYK4d6-217" value="前驱节点指向原节点的前驱节点" style="text;html=1;strokeColor=none;fillColor=none;align=center;verticalAlign=middle;whiteSpace=wrap;rounded=0;fontStyle=1;fontSize=15;" vertex="1" parent="1">
          <mxGeometry x="-120" y="230" width="140" height="30" as="geometry" />
        </mxCell>
        <mxCell id="ZF45zahiYfuIk4gYK4d6-218" value="后继节点指向原节点" style="text;html=1;strokeColor=none;fillColor=none;align=center;verticalAlign=middle;whiteSpace=wrap;rounded=0;fontStyle=1;fontSize=15;" vertex="1" parent="1">
          <mxGeometry x="-120" y="290" width="140" height="30" as="geometry" />
        </mxCell>
        <mxCell id="ZF45zahiYfuIk4gYK4d6-221" value="原节点的前驱节点的后继节点指向新节点" style="text;html=1;strokeColor=none;fillColor=none;align=center;verticalAlign=middle;whiteSpace=wrap;rounded=0;fontStyle=1;fontSize=15;" vertex="1" parent="1">
          <mxGeometry x="-120" y="570" width="140" height="30" as="geometry" />
        </mxCell>
        <mxCell id="ZF45zahiYfuIk4gYK4d6-222" value="如果原节点是头节点&lt;br&gt;将first指向新节点" style="text;html=1;strokeColor=none;fillColor=none;align=center;verticalAlign=middle;whiteSpace=wrap;rounded=0;fontStyle=1;fontSize=15;" vertex="1" parent="1">
          <mxGeometry x="-125" y="630" width="150" height="30" as="geometry" />
        </mxCell>
      </root>
    </mxGraphModel>
  </diagram>
</mxfile>
